<svg width="144" height="313" viewBox="0 0 144 313" fill="none" xmlns="http://www.w3.org/2000/svg">
<path d="M10.0986 20.0259V234.782L31.5197 219.601V4.84521L10.0986 20.0259Z" fill="#699282" stroke="#00402A" stroke-width="0.5" stroke-linejoin="round"/>
<path d="M10.129 20.0264V234.782L4.54346 230.937V16.2202L10.129 20.0264Z" fill="#A2BCB1" stroke="#00402A" stroke-width="0.5" stroke-linejoin="round"/>
<path d="M4.54346 16.2199L10.129 20.0261L31.5197 4.84539L25.8749 1L4.54346 16.2199Z" fill="#DCEBE1" stroke="#00402A" stroke-width="0.5" stroke-linejoin="round"/>
<path d="M127.625 215.599V235.091L133.435 231.064V211.571L127.625 215.599Z" fill="url(#paint0_linear_2608_6055)" stroke="#00402A" stroke-width="0.5" stroke-linejoin="round"/>
<path d="M127.681 215.599V235.091L102.948 218.129V198.712L127.681 215.599Z" fill="#A2BCB1" stroke="#00402A" stroke-width="0.5" stroke-linejoin="round"/>
<path d="M102.948 198.712L127.681 215.599L133.435 211.571L108.591 194.607L102.948 198.712Z" fill="url(#paint1_linear_2608_6055)" stroke="#00402A" stroke-width="0.5" stroke-linejoin="round"/>
<path d="M7.63062 223.011V243.797L38.7763 222.387V201.602L7.63062 223.011Z" fill="#699282" stroke="#00402A" stroke-width="0.5" stroke-linejoin="round"/>
<path d="M7.66098 223.011V243.797L1 239.403V218.657L7.66098 223.011Z" fill="#A2BCB1" stroke="#00402A" stroke-width="0.5" stroke-linejoin="round"/>
<path d="M1 218.658L7.66098 223.011L38.7764 201.602L32.0561 197.208L1 218.658Z" fill="url(#paint2_linear_2608_6055)" stroke="#00402A" stroke-width="0.5" stroke-linejoin="round"/>
<path d="M7.63062 222.037V226.908L38.7763 205.5V200.627L7.63062 222.037Z" fill="#007F33" stroke="#00402A" stroke-width="0.5" stroke-linejoin="round"/>
<path d="M7.66098 222.037V226.908L1 222.516V217.684L7.66098 222.037Z" fill="#26BF64" stroke="#00402A" stroke-width="0.5" stroke-linejoin="round"/>
<path d="M1 217.684L7.66098 222.037L38.7764 200.627L32.0561 196.233L1 217.684Z" fill="#5BD38C" stroke="#00402A" stroke-width="0.5" stroke-linejoin="round"/>
<path d="M100.837 295.686V299.874L126.174 282.667V278.479L100.837 295.686Z" fill="url(#paint3_linear_2608_6055)" stroke="#00402A" stroke-width="0.5" stroke-linejoin="round"/>
<path d="M100.855 295.686V299.874L17.1221 242.732V238.569L100.855 295.686Z" fill="#A2BCB1" stroke="#00402A" stroke-width="0.5" stroke-linejoin="round"/>
<path d="M17.1221 238.569L100.855 295.686L126.174 278.479L42.4079 221.337L17.1221 238.569Z" fill="#DCEBE1" stroke="#00402A" stroke-width="0.5" stroke-linejoin="round"/>
<path d="M35.9058 56.3283V92.6203L40.1001 89.9179V53.6243L35.9058 56.3283Z" fill="url(#paint4_linear_2608_6055)" stroke="#00402A" stroke-width="0.5" stroke-linejoin="round"/>
<path d="M35.9635 56.3281V92.6201L25.9272 86.0331V49.8179L35.9635 56.3281Z" fill="url(#paint5_linear_2608_6055)" stroke="#00402A" stroke-width="0.5" stroke-linejoin="round"/>
<path d="M25.9272 49.8179L35.9635 56.3281L40.0999 53.6241L29.952 47.0371L25.9272 49.8179Z" fill="#FFFAF6" stroke="#00402A" stroke-width="0.5" stroke-linejoin="round"/>
<path d="M107.181 291.215V312L138.327 290.59V269.805L107.181 291.215Z" fill="#699282" stroke="#00402A" stroke-width="0.5" stroke-linejoin="round"/>
<path d="M107.212 291.215V312L100.551 307.606V286.862L107.212 291.215Z" fill="#A2BCB1" stroke="#00402A" stroke-width="0.5" stroke-linejoin="round"/>
<path d="M100.551 286.862L107.212 291.214L138.327 269.805L131.607 265.411L100.551 286.862Z" fill="url(#paint6_linear_2608_6055)" stroke="#00402A" stroke-width="0.5" stroke-linejoin="round"/>
<path d="M107.181 289.752V294.624L138.327 273.214V268.344L107.181 289.752Z" fill="#007F33" stroke="#00402A" stroke-width="0.5" stroke-linejoin="round"/>
<path d="M107.212 289.754V294.624L100.551 290.23V285.399L107.212 289.754Z" fill="#26BF64" stroke="#00402A" stroke-width="0.5" stroke-linejoin="round"/>
<path d="M100.551 285.399L107.212 289.752L138.327 268.344L131.607 263.949L100.551 285.399Z" fill="#5BD38C" stroke="#00402A" stroke-width="0.5" stroke-linejoin="round"/>
<path d="M31.6383 31.2864H27.2083V203.223V203.238C27.2083 204.089 28.1996 204.773 29.424 204.773C30.6484 204.773 31.6397 204.089 31.6397 203.245C31.6397 203.245 31.6397 203.23 31.6397 203.223V31.2864H31.6383Z" fill="#89837E" stroke="#00402A" stroke-width="0.5" stroke-linejoin="round"/>
<path d="M67.807 134.558H64.5571V144.032V144.047C64.5571 144.666 65.2838 145.167 66.1814 145.167C67.079 145.167 67.807 144.666 67.807 144.047V144.032V134.558Z" fill="#5BD38C" stroke="#00402A" stroke-width="0.5" stroke-linejoin="round"/>
<path d="M70.4141 111.586H61.9482V136.263H61.9496C61.9496 136.276 61.9482 136.289 61.9482 136.304C61.9482 137.916 63.8441 139.224 66.1812 139.224C68.5182 139.224 70.4141 137.917 70.4141 136.304C70.4141 136.291 70.4141 136.278 70.4127 136.263H70.4141V111.586Z" fill="#26BF64" stroke="#00402A" stroke-width="0.5" stroke-linejoin="round"/>
<path d="M27.0842 62.6309V98.9229L40.1001 89.9177V53.624L27.0842 62.6309Z" fill="#B0A9A3" stroke="#00402A" stroke-width="0.5" stroke-linejoin="round"/>
<path d="M27.1421 62.6308V98.9228L22.803 95.8383V59.623L27.1421 62.6308Z" fill="#D8CFC7" stroke="#00402A" stroke-width="0.5" stroke-linejoin="round"/>
<path d="M22.803 59.6232L27.1421 62.6309L40.1 53.624L35.6506 50.5396L22.803 59.6232Z" fill="#FFFAF6" stroke="#00402A" stroke-width="0.5" stroke-linejoin="round"/>
<path d="M120.458 90.6851V105.742L131.547 98.1799V83.1233L120.458 90.6851Z" fill="url(#paint7_linear_2608_6055)" stroke="#00402A" stroke-width="0.5" stroke-linejoin="round"/>
<path d="M120.488 90.6853V105.742L14.3811 33.8143V18.7969L120.488 90.6853Z" fill="#A2BCB1" stroke="#00402A" stroke-width="0.5" stroke-linejoin="round"/>
<path d="M14.3811 18.7967L120.488 90.6851L131.547 83.1233L25.3812 11.1941L14.3811 18.7967Z" fill="#DCEBE1" stroke="#00402A" stroke-width="0.5" stroke-linejoin="round"/>
<path d="M73.9358 94.6431V97.3455L33.0571 69.7371V67.0347L73.9358 94.6431Z" fill="#008C39" stroke="#00402A" stroke-width="0.5" stroke-linejoin="round"/>
<path d="M73.9316 94.6429V97.3453L76.2108 95.732V93.0361L73.9316 94.6429Z" fill="url(#paint8_linear_2608_6055)" stroke="#00402A" stroke-width="0.5" stroke-linejoin="round"/>
<path d="M76.2108 93.0362L73.9317 94.6429L33.0571 67.0345L35.3473 65.4229L76.2108 93.0362Z" fill="#5BD38C" stroke="#00402A" stroke-width="0.5" stroke-linejoin="round"/>
<path d="M73.9358 109.917V112.619L33.0571 85.0124V82.3101L73.9358 109.917Z" fill="#008C39" stroke="#00402A" stroke-width="0.5" stroke-linejoin="round"/>
<path d="M73.9316 109.917V112.619L76.2108 111.006V108.312L73.9316 109.917Z" fill="url(#paint9_linear_2608_6055)" stroke="#00402A" stroke-width="0.5" stroke-linejoin="round"/>
<path d="M76.2108 108.312L73.9317 109.917L33.0571 82.31L35.3473 80.6968L76.2108 108.312Z" fill="#5BD38C" stroke="#00402A" stroke-width="0.5" stroke-linejoin="round"/>
<path d="M30.7065 294.215V298.402L131.971 228.679V224.49L30.7065 294.215Z" fill="#699282" stroke="#00402A" stroke-width="0.5" stroke-linejoin="round"/>
<path d="M2.67114 275.111L30.7242 294.215L131.971 224.49L103.883 205.363L2.67114 275.111Z" fill="#DCEBE1" stroke="#00402A" stroke-width="0.5" stroke-linejoin="round"/>
<path d="M13.8518 278.454V281.312L115.199 212.057V209.2L13.8518 278.454Z" fill="#007F33" stroke="#00402A" stroke-width="0.5" stroke-linejoin="round"/>
<path d="M13.8586 278.454V281.312L11.4485 279.607V276.756L13.8586 278.454Z" fill="url(#paint10_linear_2608_6055)" stroke="#00402A" stroke-width="0.5" stroke-linejoin="round"/>
<path d="M11.4485 276.756L13.8586 278.455L115.199 209.2L112.778 207.494L11.4485 276.756Z" fill="#5BD38C" stroke="#00402A" stroke-width="0.5" stroke-linejoin="round"/>
<path d="M23.2024 284.85V287.708L124.55 218.453V215.596L23.2024 284.85Z" fill="#007F33" stroke="#00402A" stroke-width="0.5" stroke-linejoin="round"/>
<path d="M23.2082 284.85V287.708L20.7981 286.003V283.152L23.2082 284.85Z" fill="url(#paint11_linear_2608_6055)" stroke="#00402A" stroke-width="0.5" stroke-linejoin="round"/>
<path d="M20.7981 283.152L23.2082 284.851L124.55 215.596L122.129 213.89L20.7981 283.152Z" fill="#5BD38C" stroke="#00402A" stroke-width="0.5" stroke-linejoin="round"/>
<path d="M66.8088 285.49V289.677L126.785 248.419V244.231L66.8088 285.49Z" fill="#007F33" stroke="#00402A" stroke-width="0.5" stroke-linejoin="round"/>
<path d="M66.8252 285.49V289.677L5.02734 247.786V243.62L66.8252 285.49Z" fill="#008C39" stroke="#00402A" stroke-width="0.5" stroke-linejoin="round"/>
<path d="M5.02734 243.62L66.8252 285.49L126.785 244.231L64.9527 202.338L5.02734 243.62Z" fill="url(#paint12_linear_2608_6055)" stroke="#00402A" stroke-width="0.5" stroke-linejoin="round"/>
<path d="M66.8088 281.718V285.905L126.785 244.646V240.459L66.8088 281.718Z" fill="#B0A9A3" stroke="#00402A" stroke-width="0.5" stroke-linejoin="round"/>
<path d="M66.8252 281.718V285.905L5.02734 244.014V239.849L66.8252 281.718Z" fill="#D8CFC7" stroke="#00402A" stroke-width="0.5" stroke-linejoin="round"/>
<path d="M5.02734 239.849L66.8252 281.719L126.785 240.459L64.9527 198.567L5.02734 239.849Z" fill="#FFFAF6" stroke="#00402A" stroke-width="0.5" stroke-linejoin="round"/>
<path d="M82.228 104.017V132.7L96.1057 122.88V94.1973L82.228 104.017Z" fill="#B0A9A3" stroke="#00402A" stroke-width="0.5" stroke-linejoin="round"/>
<path d="M82.2859 104.017V132.7L57.553 115.736V87.1304L82.2859 104.017Z" fill="#D8CFC7" stroke="#00402A" stroke-width="0.5" stroke-linejoin="round"/>
<path d="M57.553 87.1302L82.2859 104.017L96.1056 94.1973L71.261 77.2351L57.553 87.1302Z" fill="#FFFAF6" stroke="#00402A" stroke-width="0.5" stroke-linejoin="round"/>
<path d="M25.9607 287.274V306.767L31.7723 302.738V283.245L25.9607 287.274Z" fill="#699282" stroke="#00402A" stroke-width="0.5" stroke-linejoin="round"/>
<path d="M26.0186 287.274V306.767L1.28564 289.803V270.386L26.0186 287.274Z" fill="#A2BCB1" stroke="#00402A" stroke-width="0.5" stroke-linejoin="round"/>
<path d="M1.28564 270.387L26.0186 287.274L31.7723 283.245L6.92769 266.281L1.28564 270.387Z" fill="url(#paint13_linear_2608_6055)" stroke="#00402A" stroke-width="0.5" stroke-linejoin="round"/>
<path d="M25.9607 283.619V288.985L31.7723 284.956V279.591L25.9607 283.619Z" fill="#007F33" stroke="#00402A" stroke-width="0.5" stroke-linejoin="round"/>
<path d="M26.0186 283.619V288.985L1.28564 272.021V266.732L26.0186 283.619Z" fill="#26BF64" stroke="#00402A" stroke-width="0.5" stroke-linejoin="round"/>
<path d="M1.28564 266.732L26.0186 283.619L31.7723 279.591L6.92769 262.629L1.28564 266.732Z" fill="#5BD38C" stroke="#00402A" stroke-width="0.5" stroke-linejoin="round"/>
<path d="M127.625 210.789V216.152L133.435 212.126V206.76L127.625 210.789Z" fill="url(#paint14_linear_2608_6055)" stroke="#00402A" stroke-width="0.5" stroke-linejoin="round"/>
<path d="M127.681 210.788V216.152L102.948 199.19V193.901L127.681 210.788Z" fill="#26BF64" stroke="#00402A" stroke-width="0.5" stroke-linejoin="round"/>
<path d="M102.948 193.901L127.681 210.788L133.435 206.76L108.591 189.796L102.948 193.901Z" fill="#5BD38C" stroke="#00402A" stroke-width="0.5" stroke-linejoin="round"/>
<path d="M132.298 134.929V137.632L87.9556 107.352V104.649L132.298 134.929Z" fill="#008C39" stroke="#00402A" stroke-width="0.5" stroke-linejoin="round"/>
<path d="M132.293 134.929V137.631L134.573 136.018V133.322L132.293 134.929Z" fill="url(#paint15_linear_2608_6055)" stroke="#00402A" stroke-width="0.5" stroke-linejoin="round"/>
<path d="M134.573 133.322L132.294 134.929L87.9556 104.649L90.2458 103.036L134.573 133.322Z" fill="#5BD38C" stroke="#00402A" stroke-width="0.5" stroke-linejoin="round"/>
<path d="M132.298 150.203V152.905L87.9556 122.625V119.923L132.298 150.203Z" fill="#008C39" stroke="#00402A" stroke-width="0.5" stroke-linejoin="round"/>
<path d="M132.293 150.203V152.905L134.573 151.292V148.598L132.293 150.203Z" fill="url(#paint16_linear_2608_6055)" stroke="#00402A" stroke-width="0.5" stroke-linejoin="round"/>
<path d="M134.573 148.598L132.294 150.203L87.9556 119.923L90.2458 118.31L134.573 148.598Z" fill="#5BD38C" stroke="#00402A" stroke-width="0.5" stroke-linejoin="round"/>
<path d="M66.3633 120.506V135.564L77.453 128.003V112.944L66.3633 120.506Z" fill="#B0A9A3" stroke="#00402A" stroke-width="0.5" stroke-linejoin="round"/>
<path d="M66.3936 120.506V135.564L53.4094 126.659V111.641L66.3936 120.506Z" fill="#D8CFC7" stroke="#00402A" stroke-width="0.5" stroke-linejoin="round"/>
<path d="M53.4094 111.641L66.3936 120.506L77.4529 112.944L64.4095 104.04L53.4094 111.641Z" fill="url(#paint17_linear_2608_6055)" stroke="#00402A" stroke-width="0.5" stroke-linejoin="round"/>
<path d="M66.3633 119.776V125.439L77.453 117.877V112.214L66.3633 119.776Z" fill="#007F33" stroke="#00402A" stroke-width="0.5" stroke-linejoin="round"/>
<path d="M66.3936 119.776V125.439L53.4094 116.533V110.911L66.3936 119.776Z" fill="#26BF64" stroke="#00402A" stroke-width="0.5" stroke-linejoin="round"/>
<path d="M53.4094 110.911L66.3936 119.776L77.4529 112.214L64.4095 103.309L53.4094 110.911Z" fill="#5BD38C" stroke="#00402A" stroke-width="0.5" stroke-linejoin="round"/>
<path d="M121.579 95.5362V310.292L143 295.111V80.3555L121.579 95.5362Z" fill="#699282" stroke="#00402A" stroke-width="0.5" stroke-linejoin="round"/>
<path d="M121.609 95.5363V310.292L116.024 306.447V91.7317L121.609 95.5363Z" fill="#A2BCB1" stroke="#00402A" stroke-width="0.5" stroke-linejoin="round"/>
<path d="M116.024 91.7318L121.609 95.5364L143 80.3556L137.355 76.5103L116.024 91.7318Z" fill="#DCEBE1" stroke="#00402A" stroke-width="0.5" stroke-linejoin="round"/>
<path d="M11.25 282.966C11.25 284.228 10.4972 284.738 9.56788 284.102C8.63857 283.467 7.88574 281.929 7.88574 280.665C7.88574 279.401 8.63857 278.894 9.56788 279.529C10.4972 280.164 11.25 281.702 11.25 282.966Z" fill="#2F6852" stroke="#00402A" stroke-width="0.5" stroke-linejoin="round"/>
<path d="M19.4085 288.488C19.4085 289.75 18.6556 290.26 17.7263 289.625C16.797 288.989 16.0442 287.451 16.0442 286.188C16.0442 284.924 16.797 284.416 17.7263 285.051C18.6556 285.686 19.4085 287.224 19.4085 288.488Z" fill="#2F6852" stroke="#00402A" stroke-width="0.5" stroke-linejoin="round"/>
<path d="M134.564 96.0783C134.564 97.3405 135.317 97.8499 136.247 97.2148C137.176 96.5796 137.929 95.0414 137.929 93.7776C137.929 92.5138 137.176 92.0059 136.247 92.6411C135.317 93.2763 134.564 94.8145 134.564 96.0783Z" fill="#2F6852" stroke="#00402A" stroke-width="0.5" stroke-linejoin="round"/>
<path d="M127.88 100.747C127.88 102.009 128.633 102.518 129.562 101.883C130.491 101.248 131.244 99.7099 131.244 98.446C131.244 97.1822 130.491 96.6744 129.562 97.3096C128.633 97.9448 127.88 99.4829 127.88 100.747Z" fill="#2F6852" stroke="#00402A" stroke-width="0.5" stroke-linejoin="round"/>
<path d="M134.564 105.658C134.564 106.921 135.317 107.43 136.247 106.795C137.176 106.16 137.929 104.621 137.929 103.358C137.929 102.094 137.176 101.586 136.247 102.221C135.317 102.856 134.564 104.395 134.564 105.658Z" fill="#2F6852" stroke="#00402A" stroke-width="0.5" stroke-linejoin="round"/>
<path d="M127.88 110.327C127.88 111.589 128.633 112.098 129.562 111.463C130.491 110.828 131.244 109.29 131.244 108.026C131.244 106.762 130.491 106.254 129.562 106.889C128.633 107.525 127.88 109.063 127.88 110.327Z" fill="#2F6852" stroke="#00402A" stroke-width="0.5" stroke-linejoin="round"/>
<path d="M134.564 282.946C134.564 284.208 135.317 284.718 136.247 284.083C137.176 283.448 137.929 281.909 137.929 280.646C137.929 279.382 137.176 278.874 136.247 279.509C135.317 280.144 134.564 281.682 134.564 282.946Z" fill="#2F6852" stroke="#00402A" stroke-width="0.5" stroke-linejoin="round"/>
<path d="M127.88 287.615C127.88 288.877 128.633 289.387 129.562 288.751C130.491 288.116 131.244 286.578 131.244 285.314C131.244 284.05 130.491 283.543 129.562 284.178C128.633 284.813 127.88 286.351 127.88 287.615Z" fill="#2F6852" stroke="#00402A" stroke-width="0.5" stroke-linejoin="round"/>
<path d="M134.564 292.526C134.564 293.789 135.317 294.298 136.247 293.663C137.176 293.028 137.929 291.489 137.929 290.226C137.929 288.962 137.176 288.454 136.247 289.089C135.317 289.724 134.564 291.262 134.564 292.526Z" fill="#2F6852" stroke="#00402A" stroke-width="0.5" stroke-linejoin="round"/>
<path d="M127.88 297.196C127.88 298.459 128.633 298.968 129.562 298.333C130.491 297.698 131.244 296.16 131.244 294.896C131.244 293.632 130.491 293.124 129.562 293.759C128.633 294.394 127.88 295.933 127.88 297.196Z" fill="#2F6852" stroke="#00402A" stroke-width="0.5" stroke-linejoin="round"/>
<path d="M55.7535 231.017C55.5365 231.265 55.3351 231.527 55.1182 231.775C51.8177 235.669 48.9047 239.038 46.7199 241.511C44.2252 244.355 42.7067 246.039 42.7067 246.039C42.7067 246.039 39.3908 243.876 35.9974 238.93C35.2381 237.817 34.4634 236.55 33.7351 235.144C33.3012 234.263 32.8519 233.336 32.4335 232.347C28.3273 222.672 27.9245 201.237 33.6731 193.278C34.8972 191.593 36.0438 190.156 37.268 188.827C39.3753 186.508 41.715 184.561 44.9845 182.475C48.7497 180.033 53.7546 177.375 61.0838 173.65C65.5308 171.394 69.5285 170.652 73.0304 170.807C73.0304 170.807 73.0614 170.807 73.0769 170.807C74.332 170.853 75.5096 171.023 76.6407 171.27C76.6872 171.27 76.7182 171.27 76.7647 171.27C78.9805 171.78 80.9174 172.599 82.5753 173.527C83.1951 173.882 83.7839 174.253 84.3262 174.624C85.039 175.088 85.6743 175.582 86.2476 176.061C88.262 177.73 89.3311 179.152 89.3311 179.152C92.4301 185.921 70.6287 213.446 55.8 231.002L55.7535 231.017Z" fill="#E0E0E0" stroke="#00402A" stroke-width="0.5" stroke-linejoin="round"/>
<path d="M104.051 194.916C103.137 210.911 98.3181 227.509 92.0582 239.857C87.6576 248.574 82.5442 255.173 77.6168 257.97C65.7012 264.693 37.2679 252.53 39.0498 231.11C40.1499 217.958 42.5362 209.273 48.9666 204.312C51.8486 202.071 54.5758 199.676 57.0705 197.064C59.968 194.097 62.5712 190.851 64.8489 187.374C67.4521 183.387 71.3259 180.249 75.494 178.055C84.9924 173.017 105.229 174.129 104.051 194.916Z" fill="white" stroke="#00402A" stroke-width="0.5" stroke-linejoin="round"/>
<path d="M92.0584 239.873C91.1442 241.666 90.2145 243.381 89.2538 244.989C85.566 251.155 81.5373 255.776 77.6326 257.97C76.8424 258.419 75.9901 258.759 75.1224 259.021C65.1127 262.066 52.5772 257.012 44.7832 250.846C41.3898 248.141 37.5471 243.551 35.9976 238.915C35.6567 237.91 35.4243 236.921 35.3468 235.932C35.2228 234.557 35.5327 234.031 35.3468 232.656C35.0214 230.4 34.2621 228.159 33.7818 225.918C32.8676 221.436 32.2788 216.83 32.4647 212.256C32.6506 207.82 33.6113 203.385 35.7961 199.491C36.9118 197.528 38.3993 195.642 39.8403 193.911C41.6532 191.701 45.2791 190.589 47.8512 189.631C48.0217 189.569 48.1921 189.507 48.3626 189.445C50.5629 188.641 52.7786 187.869 55.0099 187.158C55.5987 186.972 56.1875 186.771 56.6059 186.354C57.6441 185.35 56.6989 184.268 56.2495 183.279C56.2495 183.279 56.2495 183.248 56.2495 183.232C55.8776 182.382 55.6917 181.471 55.8312 180.559C56.234 177.638 59.271 175.706 61.6418 174.454C69.8696 170.096 77.5241 171.765 82.0797 173.604C82.9474 173.944 83.6757 174.3 84.3109 174.624C85.6435 175.304 86.4028 175.845 86.4028 175.845C86.4028 175.845 86.3408 175.922 86.2323 176.077C85.1942 177.483 79.2751 185.365 71.8995 194.066C67.1735 199.63 56.172 200.356 54.8705 208.763C54.0802 213.971 53.4604 219.365 54.0802 224.62C54.3281 226.876 54.8705 229.04 55.7847 231.033C56.5594 232.764 57.6131 234.371 58.9921 235.778C61.7967 238.652 65.4226 240.599 68.816 242.686C81.2429 250.289 90.0286 240.754 90.0286 240.754C90.7724 240.429 91.4541 240.151 92.0894 239.889L92.0584 239.873Z" fill="#F7F7F7" stroke="#00402A" stroke-width="0.5" stroke-linejoin="round"/>
<path d="M71.8839 194.035C67.158 199.599 56.141 200.34 54.8549 208.748C54.0492 213.956 53.4449 219.349 54.0492 224.604C54.5295 228.777 55.9706 232.702 58.9611 235.747C60.96 237.787 63.3772 239.378 65.8409 240.862C64.2759 239.811 62.7884 238.683 61.4713 237.338C58.4963 234.294 57.0397 230.384 56.5594 226.196C55.9551 220.941 56.5594 215.548 57.3651 210.339C58.6512 201.932 69.6682 201.206 74.3941 195.627C82.5445 186.03 88.8974 177.421 88.8974 177.421C88.8974 177.421 87.9522 176.741 86.2943 175.938C85.5195 176.973 79.492 185.071 71.8839 194.02V194.035Z" fill="#8D8D8D" stroke="#00402A" stroke-width="0.5" stroke-linejoin="round"/>
<path d="M104.036 194.931C103.075 211.978 97.652 229.704 90.8187 242.253C90.6327 242.33 90.4313 242.407 90.2299 242.5C90.2299 242.5 90.0594 242.052 89.5326 241.542C88.0916 240.182 83.9854 238.451 73.3248 244.478C69.854 246.441 61.9825 240.398 59.1779 237.524C56.2029 234.479 54.7463 230.554 54.266 226.381C53.6617 221.127 54.266 215.733 55.0717 210.525C56.3578 202.118 67.3748 201.376 72.1007 195.812C80.2511 186.215 86.604 177.607 86.604 177.607C86.604 177.607 86.4491 177.499 86.1857 177.329C93.6698 177.22 101.572 180.466 103.726 189.646C103.788 189.862 103.834 190.094 103.881 190.326C104.067 191.732 104.144 193.262 104.036 194.931Z" fill="#8D8D8D" stroke="#00402A" stroke-width="0.5" stroke-linejoin="round"/>
<path d="M59.7202 188.579C57.334 189.862 55.1647 189.646 53.5377 189.089C51.7403 188.425 50.5936 187.328 50.5936 187.328C50.5936 187.328 48.4243 173.681 51.4459 165.027L52.8404 164.81L63.0981 163.311C63.0981 163.311 60.5569 174.902 63.1291 179.198C65.1124 182.568 65.4068 185.55 59.7047 188.595L59.7202 188.579Z" fill="#797570" stroke="#00402A" stroke-width="0.5" stroke-linejoin="round"/>
<path d="M62.1221 161.21C62.5249 161.503 63.2532 162.276 63.1137 163.311C62.9123 164.718 61.8587 166.773 58.2793 167.592C52.4377 168.937 51.415 165.908 51.415 165.908C51.415 165.908 51.0586 162.894 55.1648 161.086C57.2256 160.174 60.3091 159.88 62.1221 161.21Z" fill="#7A7268" stroke="#00402A" stroke-width="0.5" stroke-linejoin="round"/>
<path d="M60.7428 162.585C60.7428 162.585 61.7345 165.351 57.8762 166.232C54.2659 167.067 53.6306 165.197 53.6306 165.197C53.6306 165.197 53.4137 163.327 55.9548 162.214C57.2254 161.658 60.1695 161.194 60.7428 162.585Z" fill="#484848" stroke="#00402A" stroke-width="0.5" stroke-linejoin="round"/>
<path d="M87.1774 176.448C87.4563 176.618 87.5957 176.726 87.5957 176.726C87.5957 176.726 81.2428 185.334 73.0924 194.931C68.3665 200.495 57.3495 201.237 56.0634 209.644C55.2577 214.852 54.6534 220.246 55.2577 225.5C55.738 229.673 57.1791 233.598 60.1696 236.643C62.9742 239.518 69.823 245.189 73.2784 243.196C88.0761 234.711 91.2216 241.619 91.2216 241.619C91.9653 241.295 92.6471 241.017 93.2824 240.754C99.5424 228.406 104.361 211.808 105.276 195.812C106.097 181.192 96.3504 176.309 87.1774 176.448Z" fill="#FCFCFC" stroke="#00402A" stroke-width="0.5" stroke-linejoin="round"/>
<path d="M92.461 160.684C92.461 160.684 89.331 164.239 86.1701 179.245C84.8065 185.519 79.0269 184.561 74.8742 182.429C74.2854 182.104 73.7276 181.764 73.2162 181.44C71.7442 180.45 72.1471 178.503 72.1471 178.503C72.1471 178.503 75.3546 168.411 79.9256 160.916C84.2022 153.853 86.1391 153.096 86.1391 153.096C86.1391 153.096 86.7279 152.802 87.7506 153.204C88.4168 153.467 89.2536 153.977 90.2452 154.966C92.8174 157.609 92.7864 160.205 92.4455 160.684H92.461Z" fill="#797570" stroke="#00402A" stroke-width="0.5" stroke-linejoin="round"/>
<path d="M97.4197 207.759C98.0395 212.333 96.1181 223.723 92.4303 226.551C88.7425 229.395 85.504 226.582 84.8842 222.008C84.2644 217.433 86.6817 212.349 87.9832 211.143C91.4076 208.006 96.7844 203.184 97.4042 207.759H97.4197Z" fill="#AEAEAE" stroke="#00402A" stroke-width="0.5" stroke-linejoin="round"/>
<path d="M100.797 210.818C101.464 215.779 98.7831 222.286 94.7854 225.361C93.4218 226.412 94.1966 227.324 92.9879 227.355C92.5696 227.355 90.0594 226.922 89.6875 226.814C87.9676 226.319 86.697 224.65 86.3406 221.977C85.6743 217.016 88.3549 210.509 92.3526 207.434C94.3515 205.889 96.2884 205.502 97.8224 206.12C98.2872 206.306 100.441 207.588 100.828 207.959C101.696 208.809 100.565 209.103 100.813 210.834L100.797 210.818Z" fill="#808080" stroke="#00402A" stroke-width="0.5" stroke-linejoin="round"/>
<path d="M102.967 212.101C103.602 216.799 101.061 222.966 97.28 225.887C93.4992 228.808 89.9199 227.355 89.2846 222.672C88.6493 217.974 91.1905 211.808 94.9712 208.902C98.752 205.997 102.331 207.434 102.967 212.117V212.101Z" fill="#8D8D8D" stroke="#00402A" stroke-width="0.5" stroke-linejoin="round"/>
<path d="M101.03 213.6C101.479 216.969 99.6662 221.389 96.9546 223.476C94.2429 225.562 91.6708 224.527 91.2214 221.173C90.7721 217.819 92.585 213.384 95.2966 211.298C98.0082 209.211 100.58 210.247 101.03 213.6Z" fill="#FCFCFC" stroke="#00402A" stroke-width="0.5" stroke-linejoin="round"/>
<path d="M101.03 213.601C100.798 211.87 99.9918 210.772 98.9072 210.386C99.372 210.958 99.7129 211.715 99.8369 212.72C100.286 216.089 98.4733 220.509 95.7617 222.595C94.4446 223.615 93.174 223.878 92.1514 223.507C93.236 224.836 95.0489 224.944 96.9548 223.476C99.6664 221.39 101.495 216.97 101.03 213.601Z" fill="#808080" stroke="#00402A" stroke-width="0.5" stroke-linejoin="round"/>
<path d="M39.0654 233.877C39.0654 237.045 41.2812 240.908 44.0393 242.5C46.7974 244.108 49.0442 242.84 49.0597 239.672C49.0597 236.504 46.8439 232.64 44.0858 231.049C41.3277 229.441 39.0809 230.709 39.0654 233.877Z" fill="#8D8D8D" stroke="#00402A" stroke-width="0.5" stroke-linejoin="round"/>
<path d="M39.9641 234.34C39.9641 236.998 41.8235 240.244 44.1478 241.604C46.472 242.948 48.3624 241.882 48.3624 239.224C48.3624 236.566 46.503 233.32 44.1787 231.96C41.8545 230.616 39.9641 231.682 39.9641 234.34Z" fill="#F8F8F8" stroke="#00402A" stroke-width="0.5" stroke-linejoin="round"/>
<path d="M36.6327 206.816C34.9593 209.505 34.8353 213.956 36.3538 216.769C37.8723 219.566 40.4445 219.659 42.1179 216.969C43.7914 214.28 43.9154 209.829 42.3969 207.017C40.8938 204.219 38.3062 204.127 36.6327 206.816Z" fill="#8D8D8D" stroke="#00402A" stroke-width="0.5" stroke-linejoin="round"/>
<path d="M36.9735 207.882C35.5789 210.138 35.4705 213.863 36.7411 216.197C38.0116 218.546 40.1655 218.623 41.56 216.367C42.9546 214.11 43.063 210.386 41.7924 208.052C40.5218 205.703 38.368 205.626 36.9735 207.882Z" fill="#F8F8F8" stroke="#00402A" stroke-width="0.5" stroke-linejoin="round"/>
<path d="M59.4567 202.257H58.8214C56.7141 202.257 50.0047 202.087 45.4027 200.062C44.2716 199.568 43.1404 198.996 42.0713 198.362C38.5229 196.261 35.5944 193.525 35.4084 190.944C35.5479 190.759 35.6874 190.589 35.8423 190.419C35.8113 192.567 38.399 195.426 42.3347 197.775C43.3574 198.393 44.473 198.965 45.6506 199.49C50.9344 201.824 60.2624 201.639 60.3399 201.639L59.4567 202.257Z" fill="#8D8D8D" stroke="#00402A" stroke-width="0.5" stroke-linejoin="round"/>
<defs>
<linearGradient id="paint0_linear_2608_6055" x1="128.956" y1="223.889" x2="150.166" y2="218.527" gradientUnits="userSpaceOnUse">
<stop offset="0.04" stop-color="#9F19AB"/>
<stop offset="0.24" stop-color="#AE24B0"/>
<stop offset="0.65" stop-color="#D643BF"/>
<stop offset="1" stop-color="#FF63CE"/>
</linearGradient>
<linearGradient id="paint1_linear_2608_6055" x1="125.088" y1="189.576" x2="115.518" y2="204.978" gradientUnits="userSpaceOnUse">
<stop offset="0.04" stop-color="#9F19AB"/>
<stop offset="0.24" stop-color="#AE24B0"/>
<stop offset="0.65" stop-color="#D643BF"/>
<stop offset="1" stop-color="#FF63CE"/>
</linearGradient>
<linearGradient id="paint2_linear_2608_6055" x1="50.8298" y1="140.296" x2="7.88118" y2="209.412" gradientUnits="userSpaceOnUse">
<stop offset="0.04" stop-color="#9F19AB"/>
<stop offset="0.24" stop-color="#AE24B0"/>
<stop offset="0.65" stop-color="#D643BF"/>
<stop offset="1" stop-color="#FF63CE"/>
</linearGradient>
<linearGradient id="paint3_linear_2608_6055" x1="109.39" y1="290.635" x2="164.851" y2="276.612" gradientUnits="userSpaceOnUse">
<stop offset="0.04" stop-color="#9F19AB"/>
<stop offset="0.24" stop-color="#AE24B0"/>
<stop offset="0.65" stop-color="#D643BF"/>
<stop offset="1" stop-color="#FF63CE"/>
</linearGradient>
<linearGradient id="paint4_linear_2608_6055" x1="36.1222" y1="73.7901" x2="61.4718" y2="67.3796" gradientUnits="userSpaceOnUse">
<stop offset="0.04" stop-color="#9D9EB3"/>
<stop offset="0.58" stop-color="#D4D1D8"/>
<stop offset="1" stop-color="#EEEBF2"/>
</linearGradient>
<linearGradient id="paint5_linear_2608_6055" x1="7.06802" y1="77.5586" x2="56.5767" y2="68.1867" gradientUnits="userSpaceOnUse">
<stop offset="0.04" stop-color="#9D9EB3"/>
<stop offset="0.58" stop-color="#D4D1D8"/>
<stop offset="1" stop-color="#EEEBF2"/>
</linearGradient>
<linearGradient id="paint6_linear_2608_6055" x1="150.381" y1="208.499" x2="107.432" y2="277.615" gradientUnits="userSpaceOnUse">
<stop offset="0.04" stop-color="#9F19AB"/>
<stop offset="0.24" stop-color="#AE24B0"/>
<stop offset="0.65" stop-color="#D643BF"/>
<stop offset="1" stop-color="#FF63CE"/>
</linearGradient>
<linearGradient id="paint7_linear_2608_6055" x1="123.752" y1="95.231" x2="154.072" y2="87.5649" gradientUnits="userSpaceOnUse">
<stop offset="0.04" stop-color="#9F19AB"/>
<stop offset="0.24" stop-color="#AE24B0"/>
<stop offset="0.65" stop-color="#D643BF"/>
<stop offset="1" stop-color="#FF63CE"/>
</linearGradient>
<linearGradient id="paint8_linear_2608_6055" x1="78.8608" y1="96.1974" x2="71.0027" y2="94.71" gradientUnits="userSpaceOnUse">
<stop stop-color="#25054D"/>
<stop offset="1" stop-color="#45108A"/>
</linearGradient>
<linearGradient id="paint9_linear_2608_6055" x1="78.8608" y1="111.471" x2="71.0027" y2="109.984" gradientUnits="userSpaceOnUse">
<stop stop-color="#25054D"/>
<stop offset="1" stop-color="#45108A"/>
</linearGradient>
<linearGradient id="paint10_linear_2608_6055" x1="8.64539" y1="280.099" x2="16.9552" y2="278.525" gradientUnits="userSpaceOnUse">
<stop stop-color="#25054D"/>
<stop offset="1" stop-color="#45108A"/>
</linearGradient>
<linearGradient id="paint11_linear_2608_6055" x1="17.995" y1="286.495" x2="26.3061" y2="284.921" gradientUnits="userSpaceOnUse">
<stop stop-color="#25054D"/>
<stop offset="1" stop-color="#45108A"/>
</linearGradient>
<linearGradient id="paint12_linear_2608_6055" x1="127.836" y1="104.154" x2="41.8726" y2="242.491" gradientUnits="userSpaceOnUse">
<stop stop-color="#25054D"/>
<stop offset="1" stop-color="#45108A"/>
</linearGradient>
<linearGradient id="paint13_linear_2608_6055" x1="23.425" y1="261.251" x2="13.8548" y2="276.654" gradientUnits="userSpaceOnUse">
<stop offset="0.04" stop-color="#9F19AB"/>
<stop offset="0.24" stop-color="#AE24B0"/>
<stop offset="0.65" stop-color="#D643BF"/>
<stop offset="1" stop-color="#FF63CE"/>
</linearGradient>
<linearGradient id="paint14_linear_2608_6055" x1="129.434" y1="211.845" x2="144.201" y2="208.112" gradientUnits="userSpaceOnUse">
<stop stop-color="#25054D"/>
<stop offset="1" stop-color="#45108A"/>
</linearGradient>
<linearGradient id="paint15_linear_2608_6055" x1="137.223" y1="136.483" x2="129.365" y2="134.996" gradientUnits="userSpaceOnUse">
<stop stop-color="#25054D"/>
<stop offset="1" stop-color="#45108A"/>
</linearGradient>
<linearGradient id="paint16_linear_2608_6055" x1="137.223" y1="151.757" x2="129.365" y2="150.27" gradientUnits="userSpaceOnUse">
<stop stop-color="#25054D"/>
<stop offset="1" stop-color="#45108A"/>
</linearGradient>
<linearGradient id="paint17_linear_2608_6055" x1="76.9386" y1="86.3202" x2="60.9655" y2="112.025" gradientUnits="userSpaceOnUse">
<stop offset="0.04" stop-color="#9D9EB3"/>
<stop offset="0.58" stop-color="#D4D1D8"/>
<stop offset="1" stop-color="#EEEBF2"/>
</linearGradient>
</defs>
</svg>
